<?xml version="1.0" encoding="UTF-8"?>
<svg id="Layer_1" xmlns="http://www.w3.org/2000/svg" width="120" height="40" xmlns:xlink="http://www.w3.org/1999/xlink" version="1.1" viewBox="0 0 120 40">
  <!-- Generator: Adobe Illustrator 29.3.1, SVG Export Plug-In . SVG Version: 2.1.0 Build 151)  -->
  <defs>
    <style>
      .st0 {
        fill: #61a60e;
      }

      .st1 {
        fill: #004750;
      }

      .st2 {
        fill: #008375;
      }
    </style>
  </defs>
  <g>
    <path class="st2" d="M42.7,29.3h6v1.8h-4v1.8h3.7v1.8h-3.7v3.5h-2v-9Z"/>
    <path class="st2" d="M50.8,29.3h2v9h-2v-9Z"/>
    <path class="st2" d="M56.9,31.1h-2.6v-1.7h7.1v1.7h-2.6v7.2h-2v-7.2Z"/>
    <path class="st2" d="M63.1,29.3h2.7l3.8,6.2h0v-6.2h2v9h-2.6l-3.9-6.4h0v6.4h-2v-9Z"/>
    <path class="st2" d="M74.1,29.3h6.1v1.8h-4.1v1.7h3.9v1.8h-3.9v1.8h4.3v1.8h-6.3v-9Z"/>
    <path class="st2" d="M87,31.5c-.3-.4-.9-.6-1.4-.6s-1.3.3-1.3.9c0,1.6,4.1.6,4.1,3.7s-1.6,2.9-3.5,2.9-2.2-.3-3-1.1l1.4-1.5c.4.5,1.1.8,1.7.8s1.4-.3,1.4-.9c0-1.6-4.2-.8-4.2-3.7s1.7-2.9,3.4-2.9,2,.3,2.7.9l-1.4,1.5Z"/>
    <path class="st2" d="M94.9,31.5c-.3-.4-.9-.6-1.4-.6s-1.3.3-1.3.9c0,1.6,4.1.6,4.1,3.7s-1.6,2.9-3.5,2.9-2.2-.3-3-1.1l1.4-1.5c.4.5,1.1.8,1.7.8s1.4-.3,1.4-.9c0-1.6-4.2-.8-4.2-3.7s1.7-2.9,3.4-2.9,2,.3,2.7.9l-1.4,1.5Z"/>
    <path class="st1" d="M105,34c-.2-.3-.6-.5-1-.5-1,0-1.6.6-1.6,1.6s.6,1.6,1.6,1.6.7-.2,1-.5l1.3,1.3c-.6.6-1.5.8-2.2.8-1.9,0-3.5-1.3-3.5-3.3s1.6-3.3,3.5-3.3,1.6.2,2.2.8l-1.3,1.3Z"/>
    <path class="st1" d="M110.2,31.8c1.9,0,3.5,1.3,3.5,3.3s-1.6,3.3-3.5,3.3-3.5-1.3-3.5-3.3,1.6-3.3,3.5-3.3ZM110.2,36.7c1,0,1.6-.6,1.6-1.6s-.6-1.6-1.6-1.6-1.6.6-1.6,1.6.6,1.6,1.6,1.6Z"/>
    <path class="st1" d="M116.1,36c.7,0,1.2.5,1.2,1.2s-.5,1.2-1.2,1.2-1.2-.5-1.2-1.2.5-1.2,1.2-1.2Z"/>
  </g>
  <g>
    <path class="st1" d="M53,23.1h0c-1.1,1.7-2.8,2.5-4.9,2.5s-5.5-1.6-5.5-4.6c0-4.9,5.8-5.3,9.6-5.3h.9v-.4c0-1.9-1.5-2.8-3.5-2.8s-3,.6-4.1,1.6l-2-2c1.7-1.7,4.1-2.4,6.5-2.4,6.5,0,6.5,4.7,6.5,6.8v8.7h-3.4v-2.1ZM52.8,18.4h-.8c-2.1,0-5.7.2-5.7,2.3s1.4,2,2.7,2c2.6,0,3.8-1.4,3.8-3.5v-.9Z"/>
    <path class="st1" d="M69.8,14.6c-.9-.9-1.9-1.5-2.9-1.5-2.8,0-4.5,2.2-4.5,4.6s1.7,4.6,4.5,4.6,2.2-.5,2.9-1.4l2.5,2.7c-1.6,1.6-4.1,2.1-5.5,2.1-4.6,0-8.3-3.2-8.3-8s3.7-8,8.3-8,4.1.7,5.5,2.3l-2.6,2.6Z"/>
    <path class="st1" d="M77.2,19c.3,2.2,2,3.6,4.1,3.6s3.1-.9,4.1-2.1l2.7,2.1c-1.8,2.2-4,3-6.4,3-4.6,0-8.3-3.2-8.3-8s3.7-8,8.3-8,7.1,3,7.1,8.3v1h-11.6ZM85,16.1c0-2.2-1.5-3.6-3.9-3.6s-3.6,1.4-3.9,3.6h7.8Z"/>
    <path class="st1" d="M103.6,23h0c-1.1,1.8-3.1,2.7-5.2,2.7-4.7,0-7.5-3.5-7.5-8s3-8,7.3-8,4.4,1.3,5.2,2.3h0V1.3h3.8v23.9h-3.6v-2.3ZM99,22.2c2.8,0,4.5-2.2,4.5-4.6s-1.7-4.6-4.5-4.6-4.5,2.2-4.5,4.6,1.7,4.6,4.5,4.6Z"/>
  </g>
  <path class="st1" d="M38.1,4.8V1.7h-7.1c2.5.6,4.9,1.7,7.1,3.1Z"/>
  <path class="st0" d="M30.1,25.1l-3.4,7.2h0l-3.6-7.2H1.7v9.8c0,2,1.6,3.6,3.6,3.6h29.1c2,0,3.6-1.6,3.6-3.6v-9.8h-8Z"/>
  <path class="st1" d="M20.8,1.2H5.4c-2,0-3.6,1.6-3.6,3.6v14.8C3.8,10.3,11.3,3,20.8,1.2Z"/>
  <g>
    <path class="st2" d="M24.8,26.2s0,0,0,0c0-.1.2-.3.3-.4,0-.1.1-.3.1-.3s0-.1,0-.2c0-.1.1-.3,0-.7,0-.4-.4-1.6-.3-2.2,0-.6.1-1.2.2-1.4,0-.3,0-.7,0-.7,0,0-.3-.4-.4-1.3-.4.4-.6.7-.7.8,0,.1-.3.3-.3.5,0,.2-.4.4-.5.6-.1.2-.2.7-.5,1.1-.3.4-.6.7-.8.9-.2.2-.4.6-.5.7,0,0-.1.3-.1.4,0,.1-.1.3-.2.3,0,0,0,.2-.1.3h2.8s.9,1.9.9,1.9Z"/>
    <path class="st2" d="M28.1,26.6s0,0-.2,0c0,0-.3-.2-.3-.2,0,0,0-.3,0-.4s0-.2,0-.2c0,0-.1-.2-.1-.4,0-.2,0-.3,0-.4,0-.1,0-.4,0-.8,0-.4-.2-.8-.2-1.5,0-.7,0-1.4,0-1.4,0,0,0-.2-.1-.4,0-.2,0-.7,0-.8,0,0-.2-.8-.2-1.2,0-.4-.2-1.2-.1-1.4,0-.2,0-.2,0-.2-.2,0-.2,0-.1.2,0,.2,0,.5,0,1.2-.2.7-.3,1.1-.3,1.3,0,.1,0,.4,0,.6,0,.2-.2.5-.2.8,0,.2.2.7.1,1.2,0,.5-.2.9-.3,1.2,0,.3,0,.7,0,.8s0,.3,0,.4c0,0,0,.3,0,.4,0,0,0,.3,0,.4,0,.1-.2,0-.2.2,0,0,0,.3-.1.4-.2.2-.4.2-.4.1,0,0,0,0,0,0,0,0,0,0,0,0l1.7,3.4,1.5-3.3c0,0-.1,0-.1,0Z"/>
    <path class="st2" d="M25.1,1.7C12.5,1.7,2.3,11.8,2,24.2h17.6c0,0,0,0,0-.1,0,0,.2-.1.3-.2.1,0,.4-.2.5-.2.1,0,.3-.2.3-.2,0,0,0-.1.1-.2,0,0,.2-.2.4-.6.1-.4.5-1.6.8-2.1.3-.5.7-.9.9-1.1.2-.2.4-.6.4-.6,0,0,0-.7.6-1.7.4-.7,1-1.5,1.4-1.9,0-.2,0-.5,0-.7,0-.3,0-1.2,0-1.2,0,0-.3-.5-.4-1,0-.4,0-.7,0-.7,0,0,0,0-.1,0s-.6.2-1.2.2c-.6,0-1.1,0-1.1,0,0,0-.2.1-1.2.1-1.1,0-1.4,0-1.5,0,0,0-.2,0-.3,0,0,0-.1.2-.4.2h0c0,0-.1,0-.2,0,0,0,0,0-.1,0,0,0-.3.2-.4.2-.2,0-.3.1-.3,0,0,0,.2-.2.2-.2,0,0,.3-.1.3-.1,0,0,0,0,0,0-.1,0-.4,0-.6,0-.2,0-.4,0-.4,0,0,0,.1,0,.2-.1,0,0,.4,0,.4,0,0,0,.2,0,.2,0,0,0,0,0,0,0-.1,0-.3,0-.5,0-.2,0-.4,0-.4-.1,0-.1.2,0,.4,0,0,0,.3,0,.4,0,0,0,0,0,0-.1,0,0-.1,0-.2,0,0,0-.3,0-.3,0,0,0-.3,0-.2-.1,0,0,.1,0,.2,0,.1,0,.2,0,.3,0,0,0,.3,0,.4,0,0,0,.2,0,.2-.1,0,0,0,0-.1,0,0,0-.2,0-.2,0,0,0-.1-.1-.1-.2,0,0,.1,0,.2,0,.1,0,.2.1.3.1,0,0,.5,0,.6.3,0,0,.2,0,.4,0,.1,0,.3,0,.5,0,.4-.1.9-.3,1.5-.3.6,0,.7,0,1,0,.3,0,.6-.1.9-.1.3,0,.3,0,.3,0,0,0,0,0,.2-.1,0,0,0,0,0,0-.6-.3-1-.6-1-.6,0,0-.2,0-1.1-.5-.9-.6-1.2-.8-1.3-.8,0,0-.2,0-.3,0,0,0-.2.1-.4,0,0,0,0,0,0,0,0,0,0,0-.1,0,0,0,0,0-.1,0-.1,0-.4,0-.5,0-.2,0-.3,0-.3-.1,0,0,.2,0,.3,0,0,0,.3,0,.3,0,0,0,0,0,0,0-.1,0-.4-.2-.5-.3-.1,0-.3-.2-.3-.2,0,0,.1,0,.2,0,0,0,.3.2.4.2,0,0,.2,0,.2,0,0,0,0,0,0,0-.1-.1-.3-.2-.4-.3-.2-.1-.4-.2-.3-.3,0,0,.2,0,.4.2,0,0,.3.2.4.2,0,0,0,0,0,0,0,0,0,0-.1-.1,0,0-.2-.2-.3-.2,0,0-.2-.2-.1-.2,0,0,.1,0,.2,0,0,0,.2.1.3.2,0,0,.2.1.3.2,0,0,.2,0,.2,0,0,0,0,0,0,0,0,0-.1-.1-.2-.2,0,0,0-.2,0-.2,0,0,.1,0,.2.2,0,.1.1.2.2.3,0,0,.4.3.3.6,0,0,.2.1.3.2.1,0,.3.1.5.2.4.1.9.2,1.5.5.5.3.6.4.8.6.3.2.6.2.8.3.3.1.3.1.3.1,0,0,.2-.1.8.1.1,0,.2.1.3.1.2,0,.3-.2.3-.2,0-.1,0-.4,0-.6,0,0,0-.2,0-.2,0-.1,0-.2,0-.2,0,0-.2-.2-.2-.3,0,0,0-.2,0-.3,0,0,.1,0,.1,0v-.2c0-.2,0-.8.8-.8.8,0,.7,1.1.7,1.1,0,0,0,0,.1,0,0,0,0,.2,0,.4,0,.2-.2.2-.2.2v.2c0,.1,0,.2,0,.2,0,.1,0,.3.1.4,0,0,.2.1.3.2,0,0,.1,0,.2,0,.6-.3.8-.1.8-.1,0,0,0,0,.3-.1.3-.1.6-.1.8-.3.3-.2.3-.3.8-.6.5-.3,1.1-.4,1.5-.5.2,0,.3-.1.5-.2.1,0,.3-.1.3-.2,0-.2.3-.5.3-.6,0,0,.2-.1.2-.3,0-.1.2-.2.2-.2,0,0,0,.2,0,.2,0,0-.2.1-.2.2,0,0,0,0,0,0,0,0,.1,0,.2,0,0,0,.3-.1.3-.2.1,0,.2-.1.3-.2.1,0,.2-.1.2,0,0,0,0,.2-.1.2,0,0-.2.1-.3.2,0,0,0,0-.1.1,0,0,0,0,0,0,.1,0,.4-.2.4-.2.2-.1.4-.3.4-.2,0,.1-.1.2-.3.3-.1,0-.3.2-.4.3,0,0,0,0,0,0,0,0,.2,0,.2,0,0,0,.3-.2.4-.2,0,0,.1,0,.2,0,0,0-.1.2-.3.2-.1,0-.4.2-.5.3,0,0,0,0,0,0,0,0,.2,0,.3,0,0,0,.3,0,.3,0,0,0-.2.1-.3.1-.1,0-.4,0-.5,0,0,0,0,0-.1,0,0,0,0,0-.1,0,0,0,0,0,0,0-.2.1-.4,0-.4,0,0,0-.2,0-.3,0,0,0-.4.2-1.3.8-.9.6-1.1.5-1.1.5,0,0-.4.2-1,.6,0,0,0,0,0,0,.1,0,.2,0,.3.1.1,0,.7,0,1,.1.3,0,.6,0,.6,0,0,0,.2-.2.8,0,.6,0,1.5.3,1.5.3,0,0,.2,0,.4,0,.2,0,1,0,1.1,0,.2,0,0-.2.6-.3,0,0,.2,0,.3-.1.1,0,.2,0,.2,0,0,.1,0,.2,0,.2,0,0-.2,0-.2,0,0,0,0,0-.1,0,0,0,0,0,.1,0,.1,0,.4,0,.4,0,.1,0,.2,0,.3,0,.1,0,.3,0,.3,0,0,0-.2.1-.3.1,0,0-.3,0-.3,0,0,0-.1,0-.2,0,0,0,0,0,0,0,0,0,.3,0,.5,0,.1,0,.4,0,.4,0,0,.1-.2.1-.4.1s-.4,0-.5,0c0,0,0,0,0,0h.3s.3,0,.3,0c0,0,.3,0,.3.1s-.4,0-.5,0c0,0-.3,0-.4,0,0,0,0,0,0,0,0,0,.2,0,.2.1,0,0,.4.1.3.2,0,0-.3,0-.3,0,0,0-.2,0-.4-.2,0,0-.2,0-.3,0-.2,0-.4-.2-.4-.2,0,0-.3,0-.3,0,0,0-1.3,0-2,0-.8,0-1.2.1-1.5,0h-.3c0-.1-1,0-1.4,0-.6,0-.8-.3-.8-.3,0,0-.2.1-.2.2,0,0,0,.9-.3,1.4-.2.5-.2.5-.2.5,0,0,0,.9,0,1,0,0,0,.3,0,.5.4.4,1,1.3,1.5,2.1.6,1,.6,1.7.6,1.7,0,0,.2.4.4.6.2.2.6.7.9,1.1.3.5.7,1.7.8,2.1.1.4.3.5.4.6,0,0,0,.2.1.2,0,0,.1.1.3.2.1,0,.3.2.5.2.1,0,.3.1.3.2,0,0,0,0,0,.1h4.1V5.7c-3.7-2.6-8.2-4.1-13-4.1Z"/>
    <path class="st2" d="M32.5,24c0,0-.2-.2-.2-.3,0-.1,0-.3-.1-.4,0,0-.3-.5-.5-.7-.2-.2-.6-.5-.8-.9-.3-.4-.3-.9-.5-1.1-.1-.2-.5-.4-.5-.6,0-.2-.3-.4-.3-.5,0-.1-.3-.4-.9-1,0,0,0,0,0,0,0,.5-.2,1.3-.3,1.4,0,.1,0,.5,0,.6s0,.4,0,.6c0,.1,0,.7.1.8,0,.1,0,1.3-.2,1.9-.2.6-.2,1.2-.2,1.3,0,.1.2.9.2.9,0,0,0,0,.2.1l.9-1.9h3.3c0,0,0-.2-.1-.3Z"/>
  </g>
</svg>